<svg width="30" height="30" viewBox="0 0 30 30" fill="none" xmlns="http://www.w3.org/2000/svg">
<path d="M22 0C26.4183 0 30 3.58172 30 8V22C30 26.4183 26.4183 30 22 30H8C3.58172 30 2.25497e-07 26.4183 0 22V8C0 3.58172 3.58172 2.2549e-07 8 0H22ZM10.1377 8.90918V22H15.7305C16.7103 22 17.5352 21.8425 18.2041 21.5273C18.8731 21.212 19.3788 20.7834 19.7197 20.2422C20.0648 19.6968 20.2373 19.0764 20.2373 18.3818C20.2373 17.7385 20.1008 17.1842 19.8281 16.7197C19.5554 16.2511 19.1996 15.8868 18.7607 15.627C18.3261 15.367 17.8589 15.2264 17.3604 15.2051V15.0771C17.8163 14.9749 18.2215 14.8025 18.5752 14.5596C18.9331 14.3124 19.2144 13.9968 19.4189 13.6133C19.6234 13.2256 19.7256 12.7759 19.7256 12.2646C19.7255 11.6086 19.564 11.0291 19.2402 10.5264C18.9164 10.0193 18.4325 9.62243 17.7891 9.33691C17.1456 9.05145 16.3419 8.90918 15.3789 8.90918H10.1377ZM15.2256 16.2598C15.6687 16.2598 16.0505 16.3384 16.3701 16.4961C16.694 16.6538 16.9434 16.8714 17.1182 17.1484C17.2928 17.4254 17.3799 17.7453 17.3799 18.1074C17.3798 18.6015 17.2031 18.9977 16.8496 19.2959C16.4959 19.5899 15.9333 19.7373 15.1621 19.7373H12.9053V16.2598H15.2256ZM15.0088 11.1465C15.6223 11.1465 16.0954 11.2913 16.4277 11.5811C16.7643 11.8708 16.9326 12.2526 16.9326 12.7256C16.9325 13.0704 16.8453 13.3663 16.6709 13.6133C16.5005 13.8603 16.2658 14.0521 15.9678 14.1885C15.6737 14.3206 15.3363 14.3867 14.957 14.3867H12.9053V11.1465H15.0088Z" fill="#000AC2"/>
</svg>
